<svg xmlns="http://www.w3.org/2000/svg" width="23.547" height="28.168" viewBox="0 0 23.547 28.168">
  <path id="Path_16" data-name="Path 16" d="M14.147,18.668a4.7,4.7,0,0,0,.789-2.977V12.739A4.607,4.607,0,0,0,14.147,9.8a2.9,2.9,0,0,0-2.4-.973q-3.138,0-3.138,3.927v2.938a4.734,4.734,0,0,0,.781,2.977,2.829,2.829,0,0,0,2.357.981,2.915,2.915,0,0,0,2.4-.981Zm1.062,1.656a3.5,3.5,0,0,0,.631.965A4.374,4.374,0,0,0,19.2,22.495a4.073,4.073,0,0,0,3.23-1.268,5.868,5.868,0,0,0,1.114-3.943V12.461a16.052,16.052,0,0,0-1.323-6.918A8.9,8.9,0,0,0,18.3,1.384,13.666,13.666,0,0,0,11.827,0,14.051,14.051,0,0,0,5.289,1.376,8.8,8.8,0,0,0,1.361,5.52,16.454,16.454,0,0,0,.016,12.461Q0,13.511,0,14.563v2.1a13.987,13.987,0,0,0,1.306,6.4,8.44,8.44,0,0,0,3.935,3.825,15.048,15.048,0,0,0,6.585,1.276h4.608V25.4H11.827a11.477,11.477,0,0,1-5.009-.967,6.383,6.383,0,0,1-2.983-2.907,10.645,10.645,0,0,1-.989-4.862V14.548q0-1.053.015-2.087A13.339,13.339,0,0,1,3.888,7.019,6.847,6.847,0,0,1,6.865,3.772,10.254,10.254,0,0,1,11.827,2.69a9.869,9.869,0,0,1,4.886,1.09A6.929,6.929,0,0,1,19.7,7.041a12.91,12.91,0,0,1,1,5.42v5.133a3.261,3.261,0,0,1-.331,1.685,1.16,1.16,0,0,1-1.059.525,1.113,1.113,0,0,1-1.036-.556,3.345,3.345,0,0,1-.34-1.7l-2.726,2.776Zm0,0a3.61,3.61,0,0,1-.993,1.251,4.964,4.964,0,0,1-3.177.92,4.852,4.852,0,0,1-4.074-1.732,8.349,8.349,0,0,1-1.353-5.195v-2.66a7.612,7.612,0,0,1,1.539-5.2,5.887,5.887,0,0,1,4.631-1.725A5.862,5.862,0,0,1,16.4,7.707a7.663,7.663,0,0,1,1.531,5.217v4.622l-2.726,2.776Z" fill="#ffc107"/>
</svg>
