<svg xmlns="http://www.w3.org/2000/svg" width="27.775" height="28.024" viewBox="0 0 27.775 28.024">
  <path id="Path_15" data-name="Path 15" d="M26.233,8.79a13.888,13.888,0,0,1,.316,27.77q-.2.006-.4.006a13.907,13.907,0,0,1-6.019-1.37l-7.269,1.617a.107.107,0,0,1-.126-.119l1.228-7.35A13.889,13.889,0,0,1,26.164,8.79h.069Zm-.077,2.41c-.111,0-.222,0-.333,0a11.481,11.481,0,0,0-9.57,17.286l.211.359-.91,4.988,4.936-1.165.373.194a11.483,11.483,0,0,0,5.29,1.29q.164,0,.328,0A11.478,11.478,0,0,0,26.155,11.2Zm-4.8,4.769c.232.007.465.014.667.029.248.018.523.038.766.627.289.7.913,2.445.995,2.622a.643.643,0,0,1,.01.612,2.389,2.389,0,0,1-.366.571c-.18.2-.38.443-.541.595-.18.169-.368.352-.175.707A10.511,10.511,0,0,0,24.574,24.2a8.915,8.915,0,0,0,2.746,1.827.916.916,0,0,0,.381.1.515.515,0,0,0,.38-.177c.217-.22.87-.982,1.145-1.333a.52.52,0,0,1,.416-.248,1.054,1.054,0,0,1,.374.1c.316.126,2,1.022,2.346,1.208s.573.28.655.427a2.919,2.919,0,0,1-.254,1.652,3.521,3.521,0,0,1-2.4,1.586c-.188.011-.372.037-.612.037a9.359,9.359,0,0,1-3.542-1.038c-3.5-1.507-5.624-5.209-5.791-5.447A6.792,6.792,0,0,1,19.1,19.248a3.912,3.912,0,0,1,1.309-2.871,1.288,1.288,0,0,1,.913-.408h.029Z" transform="translate(-12.263 -8.79)" fill="#ffc107" fill-rule="evenodd"/>
</svg>
